<?xml version="1.0" encoding="utf-8"?>
<!-- Generator: Adobe Illustrator 18.0.0, SVG Export Plug-In . SVG Version: 6.00 Build 0)  -->
<!DOCTYPE svg PUBLIC "-//W3C//DTD SVG 1.1//EN" "http://www.w3.org/Graphics/SVG/1.1/DTD/svg11.dtd">
<svg version="1.1" xmlns="http://www.w3.org/2000/svg" xmlns:xlink="http://www.w3.org/1999/xlink" x="0px" y="0px"
	 viewBox="0 0 754.3 600" enable-background="new 0 0 754.3 600" xml:space="preserve">
<g id="Laag_1">
	<g id="XMLID_1_">
		<path id="Donkerrood_olifant" fill="#9E2E2E" d="M671.7,114.8c-2.2-1.4-4.7-2.5-7.2-3.3c-2-0.7-2.8-1.6-3-3.8
			c-0.5-6.9-4.4-11.1-11.5-12.5c-6.3-1.3-12.3-0.3-17.9,2.6c-6.3,3.3-11.9,7.5-16.5,12.8c-2,2.2-4.1,3-7,3c-12.3-0.1-24.7-0.1-37,0
			c-3.1,0-5.3-1-7.5-3.1c-12.6-12.3-27.3-21.2-43.6-27.6c-22.3-8.8-45.6-12.5-69.5-12.4c-31.5,0.2-63,1-94.5,1.5
			c-2.5,0-4.9,0.4-6.6-2.2c-14.6-21.4-41.3-27.2-63.3-16.6c-2,1-3.6,0.9-5.6-0.2c-18.4-9.9-35.8-7.7-52.4,4.6
			c-7.5,5.6-14.5,11.8-21.1,18.4c-2.9,2.8-5.9,4.4-9.9,5.1c-11.8,2-23.4,5.3-34.5,9.8c-24.2,9.8-40.9,26.4-47.5,52.2
			c-2.8,11.2-3.7,22.7-4.4,34.1c-1.2,21.7-0.2,43.3-1,65c0.1,13.8,0.1,27.6,0.2,41.4c0,18.7,0,37.3,0.1,56c0,17.9,0.1,35.9,0.1,53.8
			c0,16.1,7.6,25.6,23.4,28.6c13.4,2.5,26.4,1.5,38.3-6.1c5.6-5.1,8.1-11.4,8.5-19c0.6-11.9,1.9-23.9,2.9-35.8
			c0.9-12.1,1.2-24.3,3.9-36.3c0.4-13.5,0.7-27,6.9-39.4c6.3-12.7,17.7-15.4,29.6-15.3c3.5,0,3.3,2.6,3.3,5c0,14.5,0,29,0,43.5
			c0.1,15.6,0.2,31.3,0.2,46.9c0,29.8,10.5,42.9,39.8,49.1c4.1,0.9,7.3,2.1,10.2,5.4c3.7,4.3,8.8,6.9,13.7,9.6
			c26.7,9.8,53.8,9.4,81,2.4c8.5-3.7,16.8-7.9,23-15.1c3.5-4.5,5.5-9.6,6.9-15.1c0.1-23,0.3-46,0.2-68.9c0-4,1.2-5,4.8-4.1
			c2.2,0.5,4.7,1,6.9,0.8c5.7-0.6,6.3,2.3,6.2,7.1c-0.3,12.2-0.1,24.3-0.1,36.5c0,19.6,8.4,31.9,26.8,39c6.2,2.4,12.7,4,19.3,5
			c1.8,0.3,4.2,0.2,5.2,1.3c7,7.4,16.8,8.8,25.6,12.3c20,3.4,40,5.2,60,0.2c5.1-2.2,10.7-3.2,15.7-5.8c4.9-2.5,9.1-5.9,13.3-9.3
			c6-7.3,9.1-15.7,9.1-25.2c0-44.1,0-88.2,0.1-132.4c0-1.9-1-4,0.6-5.8c1.5-4.6,3.3-9.1,4.4-13.8c7.3-31.4,2.8-61.5-9.7-90.8
			c-1.5-3.6-3.4-7.1-5.4-11.3c9,0,17.3,0,25.7,0c2.2,0,3.2,1.5,4.5,2.8c6.4,6.6,14.1,11.1,22.8,14c6.3,2.2,12.8,2.2,19-0.6
			c5.5-2.5,8.3-6.8,7.6-12.7c-0.3-2.3,0.2-3.3,2.3-4.1c1.7-0.6,3.3-1.5,4.9-2.5C680.1,128.3,680,120,671.7,114.8z"/>
		<path fill="#CB0934" d="M272.9,59.5c-15.3-8.4-35.8-1.6-52.8,18c9.4-0.8,18.4,0.1,26.1-2.7C255.6,71.3,263.9,64.8,272.9,59.5z
			 M575.5,139.9c-12.9-20.7-30.4-35.7-52.9-45.9c-15.1-6.9-30.9-10.7-46.8-12.7c-30.9-3.9-62-1.4-93.1-1c-0.3,0-0.6,0.2-0.9,0.4
			c-7.1,0.1-14.3,0.3-21.4,0.3c-2.9,0-3.4,0.7-2.2,3.4c1.8,4.1,3.2,8.3,4.8,12.5c1.1,5.4,2.3,10.7,3.3,16.1
			c2.5,13.4,3.1,26.9,3.6,40.5l-0.3,7.8c0,1.1-0.1,2.2-0.2,3.5c-1.3,17.8-8.9,51.5-48.1,60.8c-0.7,0-1.6,0.1-2.8,0.5
			c-0.8,0.2-1.5,0.5-2.3,0.8c-10.5,2.3-14,6.1-14.2,15.3c0,3.3-1,5.7-4.5,5.9c-3.7,0.2-4.8-2.5-5-5.6c-0.3-7.5,2.3-13.7,8.1-18.5
			c5.2-4.3,11.4-6,17.9-7c21.1-3.3,34.5-15.4,38.7-36.3c6.2-31.5,3.4-62.6-8-92.7c-2.9-7.8-7.1-15-13.9-20.3
			c-5.6-4.8-11.7-8.4-19.1-9.8c-12.7-2.4-23.9,1.8-34.8,7.5c-15,7.9-29.4,16.8-43.5,26.2c-2.1,1.4-4.2,2.2-6.5,0.9
			c-2.2-1.2-2.6-3.3-2.1-5.6c-0.3-2.4-2-1.1-2.9-1c-7.6,0.9-15.2,1.7-22.7,3c-17.8,3.1-35.1,7.5-50.5,17.3
			c-12.7,8.1-22.2,18.7-26.2,33.6c-1.1,0.9-1.2,2-1.1,3.2l-0.1,0.3c-0.8,0.7-0.9,1.6-0.8,2.5c0,0,0.1,0,0.1,0v0c-1,1.2-1.2,2.5-1,4
			c-2.6,9-3.4,18.3-3.7,27.6c-1.3,35-0.9,70.1-0.8,105.2c0,1,0.4,1.9,0.5,2.9c-0.7,0.3-0.7,0.6,0,0.9c-1,1.7-0.4,3.6-0.4,5.4
			c-0.1,0.8-0.4,1.6-0.3,2.5c0.7,34.5,0.9,69,0.9,103.4c0,7,4,11.6,10.3,13.9c10,3.7,20.3,3.6,30.3,0c6.4-2.3,9.8-7.1,10.3-14
			c2-24.7,3.9-49.5,6.1-74.2c1-11.3,1.4-22.6,4.9-33.5c6-18.7,18.7-28.8,38-28.7c10.8,0.1,18.1-4.8,23.8-13
			c8.3-11.8,11.4-25.4,12.4-39.5c0.2-2.8-0.9-3.7-3.5-4.2c-4.6-0.9-8.2-3.5-11.2-7c-1.2-1.4-1.9-2.9-0.3-4.4
			c1.6-1.6,3.2-1.1,4.8,0.2c10.6,8.5,16,7.8,23.5-3.1c1.2-1.8,2.5-2.8,4.5-1.8c2,1,1.9,2.9,1,4.7c-2.1,4.1-4.9,7.6-9.1,9.7
			c-2.4,1.2-3.4,2.5-3.5,5.2c-1.4,20.8-6.6,40-24,54.8c8.7,2.2,16.7,4.2,24.4,7.1c2.2,0.8,3.9,1.5,4.6-1.9c0.4-2.1,2.7-3,4.8-2.6
			c2.5,0.4,3.8,2,3.9,4.5c0.1,1.3,0,2.7,0,4c0.1,22.5,0.2,45,0.3,67.5c-0.3,1.8-0.6,3.5,0.3,5.2c-0.6,2.7-0.6,5.4,0,8.1
			c-0.9,7.1-0.8,14.1,0.1,22.3c2.2-2.7,3.5-4.4,4.9-6c0.1-0.1,0.3-0.3,0.4-0.5c2.2-2.3,4.7-4.6,7.9-4.4c0.2,0,0.5,0,0.7,0
			c3.5,0,5.2-2,7.2-4.5c5.8-7.3,11.7-7.1,17.6,0.2c2.9,3.5,4.7,7.6,6.6,11.7c0.6,1.3,1,2.7,2.4,3.7c2.8,2,5.3,4.8,7.4,8.1
			c6.2,9.4,9.4,22.9,6.9,32.3c-1,3.7-3.5,6.6-5.9,10.2c6.9,0.5,12.8-0.6,18.7-0.9c7.4-0.4,14.5-2.3,21.2-5.2
			c11.3-4.7,18.9-12.6,19.7-25.3c0.5-7.5,0-15-0.1-22.5c0.1-19.6,0.1-39.3,0.2-58.9c0-3.3,0.2-6.7,4.5-6.9c4.6-0.2,4.8,3.2,4.6,6.5
			c-0.1,2.4,0.3,4.5,3.1,4.8c9.4,1.1,18.8,2.7,28.2,0.9c6.9,0.8,13.6-1,20.4-1.1c3.4-0.1,5.6-1.2,5.8-5.2c0.1-3,2.1-5,5.3-4.7
			c3.1,0.2,4,2.5,4,5.3c0,1,0,2,0,3c0,16.8,0,33.7,0.1,50.5c0,1.6-0.6,3.5,1.1,5.3c3.4-5.2,6.9-10.2,13.3-10.8
			c3.6-0.4,5.6-2,7.6-4.7c4.5-6.1,10.8-6.4,16.2-1c3.6,3.6,5.8,8.1,7.8,12.7c0.7,1.7,1.3,3.3,3,4.5c11.7,7.8,18.4,30.6,12.8,43.5
			c-1,2.2-2.4,4.2-4,6.7c14.8,0.6,28.7-0.5,41.5-6.8c9.8-4.8,16.8-12.2,16.9-23.9c0.1-43.2,0-86.3,0-129.5c0-1.3,0.6-3.2-0.7-3.7
			c-3.8-1.4-1.4-3.2-0.6-4.9c3.9-8.9,8.2-17.9,8.9-27.5c1.5-18.9,1.6-37.8-3.8-56.3C586,160.3,582.3,149.4,575.5,139.9z
			 M163.8,144.3c-2.4,2.6-5.2,3.1-7.9,0.8c-2.7-2.4-1.9-5,0.2-7.5c7.2-8.5,16.8-11.6,27.4-12.6c1.8-0.2,3.7,0,5.5,0
			c6.2-0.1,12.3,0.6,18.2,2.6c1.3,0.5,3.3,0.9,2.8,2.9c-0.5,1.7-2.2,1.8-3.8,1.7c-0.7,0-1.3-0.1-2-0.3
			C188.4,128.7,174.8,132.1,163.8,144.3z M210.5,187c-4.5,6.4-10.9,9.7-18.7,9.7c-8.2,0-14.7-5.6-18.3-15.4
			c-2.6-7.1-0.6-15.8,5.2-20.5c6.6-5.4,14.5-8,22.8-9.4c1-0.2,2.1-0.4,2.6,0.8c0.5,1.1-0.5,1.8-1.1,2.5c-2.9,3.1-6.5,5.1-10.4,7.7
			c2.3,1.3,4.1,0.5,5.9,0.6c5.8,0.4,10.8,2.6,13.6,7.9C214.9,176.5,214,182.1,210.5,187z M609.3,125.3c0-1.8-1.5-3.3-3.3-3.3h-24.3
			c-1.8,0-3.3,1.5-3.3,3.3v2.3c0,1.8,1.5,3.3,3.3,3.3H606c1.8,0,3.3-1.5,3.3-3.3V125.3z"/>
		<g id="Oranje">
			<path fill="#ED7102" d="M291.4,368.8c2.5-0.1,2.1,1.4,0.8,3.2c-0.7,2.2-1.5,4.4-2.2,6.5c-1.2,3.6-2.5,7.3-3.2,11
				c-2,9.8-2.9,19.4,1.9,28.8c-9.2,0.2-16.4-9.5-14.9-19.6c1-7,3.4-13.5,6.6-19.8c0.1-0.1,0.1-0.2,0.2-0.4c0.3-0.4,0.6-0.9,0.6-0.9
				c1.2-1.6,0.5-1.4,2-2.9c0.3-0.4,0.6-0.7,0.9-1.1c0.4-0.7,0.8-1.3,1.2-1.9c1.4-1.7,3.2-2.8,5.5-3
				C291,368.8,291.2,368.8,291.4,368.8z"/>
			<path fill="#ED7102" d="M435.2,341.9c1.8-2.5,3.6-2.6,5.4,0c0.3,0.3,0.6,0.6,0.9,1c3.1,2.8,3.9,6.8,5.4,10.5
				c0.6,1.3,0.6,2.6-0.9,3.4c-4.4,2.5-6.2,6.8-7.7,11.2c-2.8,8.2-5.1,16.5-2.9,25.8c-3,0-4.6-1.7-6-3.4c-2.9-3.4-4.4-7.5-4.6-11.9
				c-0.4-9.6,1.2-18.8,5.4-27.5C431,347.5,432.3,344.2,435.2,341.9z"/>
			<path fill="#ED7102" d="M655.2,140.9c0.5,1.5-0.1,2.6-1.3,3.5c-1.5,1.1-3.3,1.5-5.2,1.6c-8.1,0.4-14.4-3.7-20.5-8.3
				c8.2,0.4,16.2,1.6,24.3,1.5C653.9,139.1,654.8,139.6,655.2,140.9z"/>
			<path fill="#ED7102" d="M259.1,402.9c2.3-3.1,5.8-4.7,6.9-8.7c1.8,1.3,1.6,2.4,1.5,3.3c-0.2,2.6,2.4,6.1,0.2,7.4
				C265.3,406.3,262.1,404.1,259.1,402.9z"/>
			<path fill="#ED7102" d="M479,368c1.9-1.4,4-3.4,6.2-1.8c1.5,1.1-0.4,3.3-1,4.9c-4,10.7-7.1,21.4-6.1,33c0.3,3.9,1.8,7.4,3.3,11.4
				c-8.9-1.4-15.2-8.1-15-16.5c0.2-11.1,4.3-21,11.2-29.7C478,368.9,478.5,368.4,479,368z"/>
			<path fill="#ED7102" d="M662.3,120.4c2.2,1.1,5.7,1.3,5.6,4.1c-0.1,2.3-3.2,3-5.4,3.8c-6.4,2.3-13.1,2.1-19.7,1.6
				c-8.6-0.7-17-2.1-25.2-5.2c14.5-4.3,29.1-7.8,44.3-4.3C662,120.3,662.1,120.3,662.3,120.4z"/>
			<path fill="#ED7102" d="M502.2,423.9c-7.2,1.1-15.3-3.8-18.6-11.5c-1.7-4-2.8-8.2-2.6-12.6c1-13.1,3.9-25.6,10.7-37
				c5.4-9,10.8-8.9,16.4-0.1c0.8,1.3,1.5,2.6,2.2,3.9c2.2,4.2,3.2,7.2-0.8,12.1c-7.4,8.9-9.7,20.2-9.2,31.9c0.1,3.5,1.4,6.9,3.6,9.7
				C506,422.8,504.8,423.5,502.2,423.9z"/>
			<path fill="#ED7102" d="M522.2,381.8c4.6,7.7,6.9,16.2,7.4,23.3c0.2,11.6-5.3,18.9-12.9,18.9c-7.7,0-13.7-7.7-13.1-17.5
				c0.5-8.8,2.9-17.1,7.4-24.7C514.7,375.4,518.4,375.3,522.2,381.8z"/>
			<path fill="#ED7102" d="M242.4,392.3L242.4,392.3L242.4,392.3C242.4,392.3,242.4,392.3,242.4,392.3z"/>
			<path fill="#ED7102" d="M260.7,397c-3.7,3.6-7.7,3.6-11.3,0c-2.7-2.7-4.1-6.1-4.2-9.9c-0.3-8.8,1.7-17.2,5.9-25
				c2.9-5.3,5.5-5.3,8.3,0.2c3.6,6.9,5.5,14.2,5.8,22C265.5,389.1,264.4,393.5,260.7,397z"/>
			<path fill="#ED7102" d="M461.1,400.8c0.3,2,2.8,4.5,0.6,5.7c-2.2,1.1-5.1-0.6-7.6-1.6c-1.9-0.8-0.8-1.8,0.1-2.5
				c2.2-1.6,3.6-3.8,5.7-6.7C460.4,397.9,460.9,399.3,461.1,400.8z"/>
			<path fill="#ED7102" d="M252.8,348.1c1.6,3.4,1.6,5.4-1.6,9.1c-8.4,9.7-10.6,21.8-8.5,34.5c-2.6,1.4-4-0.7-5.4-2.2
				c-3.3-3.5-5-7.9-5.2-12.6c-0.5-11.9,2.3-23.1,7.8-33.6c3.4-6.3,6.8-6.2,10.3-0.2C251.3,344.8,252,346.4,252.8,348.1z"/>
			<path fill="#ED7102" d="M324.1,427.1c-5.5-0.1-9-1.8-11-6.2c-0.6-1.2-1-2.7-1.4-4.3c-2.8-12.6,1.3-24,8.5-34.2
				c2.5-3.6,5.4-3.1,8.3,1.2c0.5,0.8,1,1.6,1.5,2.3c4.5,7.6,6.3,16.1,7.1,25c-0.3,1.7-0.5,3.6-0.9,5.3
				C334.5,422.7,329.6,427.3,324.1,427.1z"/>
			<path fill="#ED7102" d="M317.8,370c2.3,4.1,2.7,7.1-0.9,11.6c-7.2,8.9-9.5,20-9.3,31.4c0,3,1.1,5.9,2.6,8.5
				c0.1,0.2,0.2,0.4,0.3,0.6c2.3,4.3,1.6,5-5.4,4.8c-3.8-0.1-8-2.8-11.3-7.1c-3.4-4.3-5.3-9.4-5.3-14.8c0-8.9,1.4-17.5,4.3-25.7
				c1.7-4.9,4-9.6,6.8-14.2c5-8.2,10.2-8.1,15.5,0C316,366.8,316.8,368.5,317.8,370z"/>
			<path fill="#ED7102" d="M242.7,391.8C242.7,391.8,242.7,391.8,242.7,391.8C242.7,391.8,242.7,391.8,242.7,391.8
				C242.7,391.8,242.8,391.7,242.7,391.8C242.8,391.8,242.8,391.8,242.7,391.8z"/>
			<path fill="#ED7102" d="M451.7,362.8c4.2,7.2,5.7,15.2,6.6,23.7c-0.2,1.1-0.3,2.6-0.6,4.1c-1.4,6.4-5.2,10.5-9.8,10.4
				c-4.7,0-9-4.6-9.7-11c-1.1-9.8,1.5-18.9,6.1-27.3C446.5,358.6,449.3,358.7,451.7,362.8z"/>
			<path fill="#ED7102" d="M652,107.7c-0.2,2.9-3,1.8-4.8,2c-6,0.7-12,1.2-18.9,1.9c5.8-5.1,11.4-8.5,18.7-7.7
				C649.4,104.2,652.1,104.8,652,107.7z"/>
		</g>
	</g>
	<rect x="104.7" y="461.8" fill="none" width="1014.1" height="181.9"/>
	<text transform="matrix(1 0 0 1 104.7118 527.6292)"><tspan x="0" y="0" fill="#ED7102" font-family="'MyriadPro-Bold'" font-size="92.6616" letter-spacing="-4">PHP</tspan><tspan x="157.6" y="0" fill="#9E2E2E" font-family="'MyriadPro-Bold'" font-size="92.6616" letter-spacing="-4"> Antwerp</tspan></text>
	<g id="Logo_Antwerpen">
		<path fill="#ED7102" d="M529,187.2c0,2.7-1.4,3.3-3,3.9c-8.2,2.7-16.3,5.5-24.5,8.2c-1.7,0.6-3.3,1.2-5,1.7
			c-2.5,0.8-3.7,0.1-4.6-2.3c-0.8-2.1-1.5-4.2-2.2-6.3c-0.8-2.6-0.2-3.8,2.4-4.7c3.1-1.1,6.2-2.1,9.3-3.2c6.6-2.2,13.2-4.4,19.7-6.6
			c3.4-1.1,4.5-0.6,5.6,2.8C527.6,183.1,528.4,185.4,529,187.2z"/>
		<path fill="#ED7102" d="M521.1,221.8c3.3,1.2,3.8,2.2,2.7,5.5c-0.6,1.9-1.2,3.8-1.9,5.6c-0.8,2.4-2.1,3.2-4.3,2.4
			c-7.4-2.5-14.7-5.1-22-7.8c-1.8-0.6-2.1-2.2-1.7-3.8c0.7-2.6,1.5-5.1,2.6-7.6c0.4-0.9,1.6-1.5,2.3-2.1c1.5,0.4,2.5,0.7,3.4,1
			C508.4,217.3,514.7,219.6,521.1,221.8z"/>
		<path fill="#ED7102" d="M499.4,152.2c1.9,1.6,2.1,2.8,0.7,4.7c-4.5,6.1-9,12.1-13.5,18.2c-0.6,0.8-1.6,1.2-2.5,1.7
			c-1-0.4-1.8-0.7-2.5-1.1c-1.9-1.4-3.8-2.8-5.6-4.3c-1.7-1.3-1.9-2.9-0.6-4.6c4.5-6.1,9.1-12.3,13.6-18.3c1.3-1.7,3.1-1.8,4.8-0.6
			C495.7,149.2,497.5,150.7,499.4,152.2z"/>
		<path fill="#FFFFFF" d="M487.7,252.6c-5.9,0-11.6,0-17.2,0c-2.6,0-5.8,0.7-7.6-0.5c-1.7-1.2-1.9-4.4-2.8-6.8
			c-1.9-5.3-3.8-10.6-5.6-15.9c-0.5-1.4-1.1-1.9-2.6-1.9c-12.3,0.1-24.6,0.1-36.9,0c-1.5,0-2.1,0.6-2.6,1.9
			c-2.4,7.1-5,14.1-7.4,21.1c-0.5,1.5-1.1,2.2-2.9,2.2c-7.3-0.1-14.6-0.1-22.4-0.1c0.3-0.9,0.6-1.6,0.8-2.3
			c13.8-36.1,27.6-72.2,41.4-108.4c0.5-1.4,1.2-2,2.8-1.9c6,0.1,12.1,0.1,18.1,0c1.6,0,2.2,0.6,2.8,2
			c13.7,36.2,27.4,72.3,41.2,108.5C487.3,251.1,487.4,251.7,487.7,252.6z M421.2,206c8.4,0,16.4,0,24.6,0
			c-4.1-13-8.2-23.9-12.3-35.8C429.5,182.1,425.4,193,421.2,206z"/>
		<path fill="#ED7102" d="M390.2,166.7c1.2,1.7,1,3.3-0.6,4.6c-1.9,1.5-3.7,2.9-5.6,4.3c-0.6,0.5-1.5,0.7-2.5,1.1
			c-0.9-0.6-2-1-2.6-1.7c-4.6-6-4.4-6.1-9.4-12.2v-13.3l2.2-1.7c1.8-1.3,3.7-1.2,5,0.6c0.2,0.2,0.3,0.4,0.5,0.7
			C381.4,154.9,385.8,160.8,390.2,166.7z"/>
		<path fill="#ED7102" d="M374.9,187.5c3.3,1.1,3.8,2.2,2.7,5.5c-0.5,1.7-1.2,3.3-1.7,5c-1.1,3.3-2.2,3.9-5.4,2.8
			c-3.8-1.3-6.3-2.5-10.1-3.8c2.7-4,3.7-8.3,5.5-12.6C368.9,185.4,371.9,186.4,374.9,187.5z"/>
		<path fill="#ED7102" d="M373.5,223.5c0.7,2.4,0.1,3.6-2.2,4.4c-6.9,2.5-13.8,4.9-20.7,7.3c-2.8,1-4.1,0.2-5.1-2.6
			c-0.8-2.2-1.7-4.5-2.1-6.8c-0.2-1.1,0.6-3,1.4-3.3c7.5-2.9,15-5.4,22.6-8.1c0.3-0.1,0.6-0.1,0.9-0.1c0.1-0.1,0.3-0.3,0.4-0.4
			c0.8,0.8,2,1.5,2.4,2.5C372.2,218.8,372.8,221.1,373.5,223.5z"/>
	</g>
</g>
<g id="Oog">
	<path fill="#9E2E2E" d="M198.5,163.1c-1.8-0.1-3.6,0.6-5.9-0.6c3.9-2.6,7.6-4.6,10.4-7.7c0.7-0.7,1.6-1.5,1.1-2.5
		c-0.5-1.1-1.7-0.9-2.6-0.8c-8.3,1.4-16.2,3.9-22.8,9.4c-5.8,4.8-7.8,13.4-5.2,20.5c3.6,9.7,10.1,15.3,18.3,15.4
		c7.9,0,14.2-3.2,18.7-9.7c3.5-5,4.4-10.5,1.5-16C209.3,165.6,204.3,163.5,198.5,163.1z M204.8,182.2c-2-0.7-2.6-2.3-2.6-4.3
		c0-1.2,0.4-2.5,2-2.1c1.9,0.5,2.3,2.2,2.4,3.9C206.7,180.9,206.6,182.1,204.8,182.2z"/>
	<path fill="#FFFFFF" d="M200,166.7c6.3,1.5,9.6,5.7,9.1,12.7c-2.1-4.7-4.6-7.7-8.9-8.5c-2.2-0.4-4.3-0.1-6.1,1.3
		c-2.6,2-3.8,3.9,0.4,5.5c0.9,0.3,1.7,0.9,2.5,1.4c-0.7,2.7-5.7,2.5-4.2,5.8c1.8,3.9,5.5,5.6,10.2,5.3c-5.5,5.1-14,5.7-19.4,1.6
		c-4.5-3.4-5.8-9.8-3.1-15.3C183.9,169.2,192.7,164.9,200,166.7z"/>
	<path fill="#9E2E2E" d="M204.1,131.9c0.6,0.1,1.3,0.2,2,0.3c1.5,0,3.3,0,3.8-1.7c0.5-2-1.4-2.4-2.7-2.9c-5.9-2-12-2.8-18.2-2.6
		c-1.8,0-3.7-0.2-5.5,0c-10.6,1-20.2,4.1-27.4,12.6c-2.1,2.5-2.8,5.1-0.2,7.5c2.7,2.4,5.5,1.9,7.9-0.8
		C174.8,132.1,188.4,128.6,204.1,131.9z"/>
	<path fill="#FFFFFF" d="M206.7,179.7c0.1,1.2-0.1,2.4-1.8,2.5c-2-0.7-2.6-2.3-2.6-4.3c0-1.2,0.4-2.6,2-2.2
		C206.1,176.3,206.6,178,206.7,179.7z"/>
</g>
</svg>
